# xmcd CD database file
#
# Track frame offsets:
#	150
#	13307
#	27805
#	41278
#	53436
#	67164
#	84999
#	99761
#	111811
#	126141
#	140764
#	153943
#	167210
#	179510
#	194434
#	207433
#	223003
#	236646
#	251259
#	265118
#
# Disc length: 3724 seconds
#
# Revision: 0
# Processed by: cddbd v1.4PL0 Copyright (c) Steve Scherf et al.
# Submitted via: CDex 1.50beta10
#
DISCID=150e8a14
DTITLE=Various Artist - V&A Art Deco CD1 Cotton Club Stomp
DYEAR=2003
DGENRE=Jazz
TTITLE0=cotton club stomp - duke ellington and his cotton club orchestra
TTITLE1=rhythm is our business - jimmie lunceford and willie smith
TTITLE2=all of me - louie armstrong
TTITLE3=exactly like you - count basie and jimmie rushing
TTITLE4=harlem shout - jimmie lunceford
TTITLE5=ain't misbehavin' fats waller and his rhythm
TTITLE6=tuxedu junction - erskine hawkins
TTITLE7=billie's blues - billie holiday
TTITLE8=stormy weather - ethel waters and dorsey brothers
TTITLE9=fine and mellow - billie holiday
TTITLE10=it's a sin to tell a lie - fats waller
TTITLE11=I can't give you anything but love - louis armstrong
TTITLE12=harlem joys - willie 'the lion' smith and his cubs
TTITLE13=kickin' the gong around - cab calloway
TTITLE14=diga diga doo - duke ellington and cotton club orch and irving mills
TTITLE15=nagasaki - fletcher henderson and henry 'red' allen
TTITLE16=one o' clock jump - count basie
TTITLE17=harlem congo - chick webb
TTITLE18=christopher columbus - fletcher henderson
TTITLE19=minnie the moocher - cab calloway
EXTD=YEAR: 2003
EXTT0=
EXTT1=
EXTT2=
EXTT3=
EXTT4=
EXTT5=
EXTT6=
EXTT7=
EXTT8=
EXTT9=
EXTT10=
EXTT11=
EXTT12=
EXTT13=
EXTT14=
EXTT15=
EXTT16=
EXTT17=
EXTT18=
EXTT19=
PLAYORDER=
